<svg width="42" height="42" viewBox="0 0 42 42" fill="none" xmlns="http://www.w3.org/2000/svg">
<path d="M42 21C42 32.598 32.598 42 21 42C9.40202 42 0 32.598 0 21C0 9.40202 9.40202 0 21 0C32.598 0 42 9.40202 42 21Z" fill="#5B91BD"/>
<mask id="mask0_42_15" style="mask-type:luminance" maskUnits="userSpaceOnUse" x="8" y="10" width="28" height="23">
<path d="M21.9091 31.3636H10.9364C10.4228 31.3636 9.93029 31.1625 9.56715 30.8045C9.20401 30.4464 9 29.9609 9 29.4545V12.9091C9 12.4028 9.20401 11.9172 9.56715 11.5592C9.93029 11.2011 10.4228 11 10.9364 11H32.8818C33.3954 11 33.8879 11.2011 34.251 11.5592C34.6142 11.9172 34.8182 12.4028 34.8182 12.9091V20.583" stroke="white" stroke-width="2" stroke-linecap="round" stroke-linejoin="round"/>
<path d="M9 12.9091C9 12.4028 9.20401 11.9172 9.56715 11.5592C9.93029 11.2011 10.4228 11 10.9364 11H32.8818C33.3954 11 33.8879 11.2011 34.251 11.5592C34.6142 11.9172 34.8182 12.4028 34.8182 12.9091V18.6364H9V12.9091Z" fill="#555555" stroke="white" stroke-width="2"/>
<path d="M11.5818 14.8182C11.5818 14.1153 12.1598 13.5455 12.8727 13.5455C13.5857 13.5455 14.1637 14.1153 14.1637 14.8182C14.1637 15.5211 13.5857 16.0909 12.8727 16.0909C12.1598 16.0909 11.5818 15.5211 11.5818 14.8182Z" fill="white"/>
<path d="M15.4545 14.8182C15.4545 14.1153 16.0325 13.5455 16.7455 13.5455C17.4584 13.5455 18.0364 14.1153 18.0364 14.8182C18.0364 15.5211 17.4584 16.0909 16.7455 16.0909C16.0325 16.0909 15.4545 15.5211 15.4545 14.8182Z" fill="white"/>
<path d="M30.3 29.4545C31.3694 29.4545 32.2364 28.5998 32.2364 27.5455C32.2364 26.4911 31.3694 25.6364 30.3 25.6364C29.2306 25.6364 28.3636 26.4911 28.3636 27.5455C28.3636 28.5998 29.2306 29.4545 30.3 29.4545Z" stroke="white" stroke-width="2"/>
<path d="M30.3 32V29.4545M30.3 25.6364V23.0909M26.3873 29.7727L28.6231 28.5M31.9769 26.5909L34.2127 25.3182M26.3873 25.3182L28.6231 26.5909M31.9769 28.5L34.2127 29.7727" stroke="white" stroke-width="2" stroke-linecap="round" stroke-linejoin="round"/>
</mask>
<g mask="url(#mask0_42_15)">
<path d="M5.45 4H36.4318V34.5455H5.45V4Z" fill="white"/>
</g>
</svg>
