<svg width="42" height="42" viewBox="0 0 42 42" fill="none" xmlns="http://www.w3.org/2000/svg">
<path d="M42 21C42 32.598 32.598 42 21 42C9.40202 42 0 32.598 0 21C0 9.40202 9.40202 0 21 0C32.598 0 42 9.40202 42 21Z" fill="#5B91BD"/>
<path d="M29.916 11.25L32.8418 19.375H34.25V21H33.9492C33.7669 21.4824 33.5117 21.9225 33.1836 22.3203C32.8555 22.7181 32.4727 23.0609 32.0352 23.3486C31.5977 23.6364 31.1237 23.8564 30.6133 24.0088C30.1029 24.1611 29.5651 24.2415 29 24.25C28.444 24.25 27.9108 24.1738 27.4004 24.0215C26.89 23.8691 26.416 23.6491 25.9785 23.3613C25.541 23.0736 25.1582 22.7308 24.8301 22.333C24.502 21.9352 24.2422 21.4909 24.0508 21H23.75V19.375H25.1582L28.084 11.25H22V29.1504C23.5221 29.2435 24.9622 29.5609 26.3203 30.1025C27.6784 30.6442 28.9225 31.4017 30.0527 32.375H32.5V34H9.75V32.375H12.1973C13.3184 31.4102 14.5579 30.6569 15.916 30.1152C17.2741 29.5736 18.7188 29.252 20.25 29.1504V11.25H14.166L17.0918 19.375H18.5V21H18.1992C18.0169 21.4824 17.7617 21.9225 17.4336 22.3203C17.1055 22.7181 16.7227 23.0609 16.2852 23.3486C15.8477 23.6364 15.3737 23.8564 14.8633 24.0088C14.3529 24.1611 13.8151 24.2415 13.25 24.25C12.694 24.25 12.1608 24.1738 11.6504 24.0215C11.14 23.8691 10.666 23.6491 10.2285 23.3613C9.79102 23.0736 9.4082 22.7308 9.08008 22.333C8.75195 21.9352 8.49219 21.4909 8.30078 21H8V19.375H9.4082L12.334 11.25H8V9.625H20.25V8H22V9.625H34.25V11.25H29.916ZM13.25 13.8145L11.2539 19.375H15.2461L13.25 13.8145ZM13.25 22.625C13.8789 22.625 14.4622 22.4811 15 22.1934C15.5378 21.9056 15.9661 21.5078 16.2852 21H10.2148C10.5339 21.5078 10.9622 21.9056 11.5 22.1934C12.0378 22.4811 12.6211 22.625 13.25 22.625ZM27.1953 32.375C26.2839 31.8418 25.3132 31.4398 24.2832 31.1689C23.2533 30.8981 22.2005 30.7585 21.125 30.75C20.0495 30.75 18.9967 30.8854 17.9668 31.1562C16.9368 31.4271 15.9661 31.8333 15.0547 32.375H27.1953ZM29 13.8145L27.0039 19.375H30.9961L29 13.8145ZM29 22.625C29.6289 22.625 30.2122 22.4811 30.75 22.1934C31.2878 21.9056 31.7161 21.5078 32.0352 21H25.9648C26.2839 21.5078 26.7122 21.9056 27.25 22.1934C27.7878 22.4811 28.3711 22.625 29 22.625Z" fill="#F8F8F8"/>
</svg>
