<svg width="42" height="42" viewBox="0 0 42 42" fill="none" xmlns="http://www.w3.org/2000/svg">
<path d="M42 21C42 32.598 32.598 42 21 42C9.40202 42 0 32.598 0 21C0 9.40202 9.40202 0 21 0C32.598 0 42 9.40202 42 21Z" fill="#5B91BD"/>
<path d="M32.5 10H10.9375C10.4189 10 10 10.391 10 10.875V31C10 31.484 10.4189 31.875 10.9375 31.875H32.5C33.0186 31.875 33.4375 31.484 33.4375 31V10.875C33.4375 10.391 33.0186 10 32.5 10ZM19.6152 27.8555H18.127C18.0625 27.8555 17.9951 27.8254 17.9541 27.7762L16.9141 26.5867L15.874 27.7762C15.8537 27.801 15.8276 27.821 15.7976 27.8348C15.7676 27.8485 15.7346 27.8556 15.7012 27.8555H14.2129C14.0195 27.8555 13.9141 27.6395 14.043 27.4973L15.8799 25.3973L14.0869 23.3492C13.9609 23.207 14.0664 22.991 14.2598 22.991H15.751C15.8154 22.991 15.8828 23.0211 15.9238 23.0703L16.9199 24.2078L17.916 23.0703C17.96 23.0184 18.0215 22.991 18.0889 22.991H19.5771C19.7705 22.991 19.876 23.207 19.75 23.3492L17.9541 25.3945L19.791 27.4945C19.9141 27.6395 19.8086 27.8555 19.6152 27.8555ZM19.8438 17.4102C19.8438 17.4703 19.8027 17.5195 19.75 17.5195H17.7344V19.398C17.7344 19.45 17.6816 19.4883 17.6172 19.4883H16.2109C16.1465 19.4883 16.0938 19.45 16.0938 19.4008V17.5195H14.0781C14.0254 17.5195 13.9844 17.4703 13.9844 17.4102V16.0977C13.9844 16.0375 14.0254 15.9883 14.0781 15.9883H16.0938V14.107C16.0938 14.0578 16.1465 14.0195 16.2109 14.0195H17.6172C17.6816 14.0195 17.7344 14.0578 17.7344 14.107V15.9883H19.7471C19.8027 15.9883 19.8438 16.0375 19.8438 16.0977V17.4102ZM29.4531 27.5C29.4531 27.5602 29.4121 27.6094 29.3594 27.6094H23.6875C23.6348 27.6094 23.5938 27.5602 23.5938 27.5V26.1875C23.5938 26.1273 23.6348 26.0781 23.6875 26.0781H29.3564C29.4121 26.0781 29.4531 26.1273 29.4531 26.1875V27.5ZM29.4531 24.6562C29.4531 24.7164 29.4121 24.7656 29.3594 24.7656H23.6875C23.6348 24.7656 23.5938 24.7164 23.5938 24.6562V23.3438C23.5938 23.2836 23.6348 23.2344 23.6875 23.2344H29.3564C29.4121 23.2344 29.4531 23.2836 29.4531 23.3438V24.6562ZM29.4531 17.4102C29.4531 17.4703 29.4121 17.5195 29.3594 17.5195H23.6875C23.6348 17.5195 23.5938 17.4703 23.5938 17.4102V16.0977C23.5938 16.0375 23.6348 15.9883 23.6875 15.9883H29.3564C29.4121 15.9883 29.4531 16.0375 29.4531 16.0977V17.4102Z" fill="white"/>
</svg>
